<svg width="415" height="460" viewBox="0 0 415 460" fill="none" xmlns="http://www.w3.org/2000/svg">
<g clip-path="url(#clip0_69_1418)">
<g clip-path="url(#clip1_69_1418)">
<mask id="path-1-inside-1_69_1418" fill="white">
<path d="M27 108.947C27 93.5124 39.5125 81 54.9473 81H989.535C1004.97 81 1017.48 93.5125 1017.48 108.947V555.176H27V108.947Z"/>
</mask>
<path d="M27 108.947C27 93.5124 39.5125 81 54.9473 81H989.535C1004.97 81 1017.48 93.5125 1017.48 108.947V555.176H27V108.947Z" fill="url(#paint0_linear_69_1418)"/>
<path d="M154.622 127.831C151.209 127.831 148.91 125.648 148.91 122.931H151.719C151.743 124.185 152.927 125.323 154.692 125.323C156.317 125.323 157.362 124.325 157.362 123.071C157.362 121.956 156.41 121.306 155.063 120.935L153.066 120.377C149.63 119.495 149.026 117.428 149.026 116.035C149.026 113.202 151.51 111.275 154.459 111.275C157.385 111.275 159.684 113.086 159.684 116.082H156.874C156.874 114.758 155.876 113.806 154.39 113.806C153.02 113.806 151.882 114.735 151.882 115.989C151.882 116.43 152.021 117.359 153.856 117.846L155.76 118.404C158.268 119.1 160.195 120.4 160.195 122.955C160.195 125.88 157.757 127.831 154.622 127.831Z" fill="white"/>
<path d="M165.567 116.708H167.866V118.845H165.567V127.552H162.873V118.845H160.923V116.708H162.873V112.715H165.567V116.708Z" fill="white"/>
<path d="M175.034 116.43C175.684 116.43 176.381 116.569 176.799 116.801L176.265 119.356C175.638 119.03 175.08 118.961 174.686 118.961C172.921 118.961 171.946 120.726 171.946 123.767V127.552H169.229V116.708H171.922V119.03C172.503 117.219 173.687 116.43 175.034 116.43Z" fill="white"/>
<path d="M185.467 122.514V116.708H188.161V127.552H185.467V125.857C184.91 127.227 183.192 127.831 182.1 127.831C179.314 127.831 177.758 125.95 177.758 122.792V116.708H180.452V122.676C180.452 124.418 181.497 125.323 182.704 125.323C183.935 125.323 185.467 124.627 185.467 122.514Z" fill="white"/>
<path d="M195.872 127.831C192.737 127.831 189.974 125.555 189.974 122.119C189.974 118.682 192.737 116.43 195.872 116.43C197.753 116.43 199.285 117.266 200.284 118.52L198.38 120.029C197.822 119.356 196.893 118.938 195.918 118.938C194.037 118.938 192.691 120.284 192.691 122.119C192.691 123.93 194.037 125.323 195.918 125.323C196.893 125.323 197.822 124.905 198.38 124.232L200.284 125.741C199.285 126.995 197.753 127.831 195.872 127.831Z" fill="white"/>
<path d="M205.57 116.708H207.869V118.845H205.57V127.552H202.877V118.845H200.926V116.708H202.877V112.715H205.57V116.708Z" fill="white"/>
<path d="M215.293 116.43C218.334 116.43 220.796 118.821 220.796 122.119C220.796 125.416 218.334 127.831 215.293 127.831C213.481 127.831 211.763 126.902 210.974 125.416V127.552H209.487V110.811H210.974V118.821C211.786 117.335 213.458 116.43 215.293 116.43ZM215.176 126.414C217.475 126.414 219.333 124.51 219.333 122.096C219.333 119.704 217.475 117.846 215.176 117.846C213.017 117.846 210.974 119.541 210.974 122.165C210.974 124.673 212.924 126.414 215.176 126.414Z" fill="white"/>
<path d="M227.999 127.831C224.911 127.831 222.334 125.555 222.334 122.119C222.334 118.682 224.911 116.43 227.999 116.43C231.088 116.43 233.688 118.682 233.688 122.119C233.688 125.555 231.088 127.831 227.999 127.831ZM227.999 126.414C230.275 126.414 232.202 124.673 232.202 122.119C232.202 119.565 230.275 117.846 227.999 117.846C225.701 117.846 223.82 119.565 223.82 122.119C223.82 124.673 225.701 126.414 227.999 126.414Z" fill="white"/>
<path d="M240.863 127.831C237.775 127.831 235.197 125.555 235.197 122.119C235.197 118.682 237.775 116.43 240.863 116.43C243.951 116.43 246.552 118.682 246.552 122.119C246.552 125.555 243.951 127.831 240.863 127.831ZM240.863 126.414C243.139 126.414 245.066 124.673 245.066 122.119C245.066 119.565 243.139 117.846 240.863 117.846C238.564 117.846 236.683 119.565 236.683 122.119C236.683 124.673 238.564 126.414 240.863 126.414Z" fill="white"/>
<path d="M251.869 127.831C249.988 127.831 248.107 126.74 247.922 124.673H249.292C249.454 125.579 250.29 126.507 251.869 126.507C253.425 126.507 254.377 125.695 254.377 124.603C254.377 123.721 253.773 123.14 252.659 122.862L251.103 122.49C249.57 122.119 248.34 121.329 248.34 119.518C248.34 117.753 249.849 116.43 251.916 116.43C253.727 116.43 255.399 117.428 255.468 119.379H254.029C253.959 118.404 253.007 117.753 251.939 117.753C250.685 117.753 249.826 118.52 249.826 119.541C249.826 120.563 250.708 121.004 251.498 121.19L253.1 121.585C255.213 122.096 255.863 123.373 255.863 124.627C255.863 126.554 254.121 127.831 251.869 127.831Z" fill="white"/>
<path d="M260.268 116.708H262.753V117.986H260.268V127.552H258.805V117.986H256.831V116.708H258.805V112.645H260.268V116.708Z" fill="white"/>
<path d="M139.059 111.946H129.102C128.696 111.946 128.609 111.975 128.377 112.209L120.482 119.584C120.25 119.818 120.221 119.906 120.221 120.316V124.648C120.221 127.105 121.44 128.335 123.878 128.335H133.835C134.241 128.335 134.328 128.305 134.56 128.071L142.455 120.696C142.687 120.462 142.716 120.374 142.716 119.965V115.634C142.716 113.175 141.497 111.946 139.059 111.946Z" fill="#F67ACB"/>
<rect x="367.026" y="118.263" width="44.7158" height="1.86316" fill="white"/>
<rect x="120.221" y="210.076" width="307.453" height="1.79273" fill="white"/>
<rect x="120.221" y="247.724" width="253.671" height="1.79273" fill="white"/>
<rect x="120.221" y="285.371" width="170.309" height="1.79273" fill="white"/>
<rect x="120.687" y="323.484" width="193.768" height="40.9894" stroke="#F67ACB" stroke-width="0.931578"/>
<path d="M141.756 347.479V339.318H142.852V347.479H141.756ZM142.628 343.846V342.862L146.127 342.851V343.834L142.628 343.846ZM142.628 340.302V339.318H146.317V340.302H142.628ZM150.934 347.479V345.69H150.755V343.622C150.755 343.212 150.647 342.903 150.431 342.694C150.222 342.485 149.913 342.381 149.503 342.381C149.272 342.381 149.034 342.385 148.788 342.392C148.542 342.4 148.307 342.407 148.083 342.415C147.86 342.422 147.666 342.433 147.502 342.448V341.509C147.666 341.494 147.838 341.483 148.016 341.476C148.203 341.461 148.393 341.453 148.587 341.453C148.78 341.446 148.967 341.442 149.145 341.442C149.757 341.442 150.256 341.517 150.643 341.666C151.031 341.807 151.318 342.042 151.504 342.37C151.691 342.698 151.784 343.141 151.784 343.7V347.479H150.934ZM148.978 347.635C148.531 347.635 148.143 347.561 147.815 347.412C147.495 347.255 147.245 347.032 147.066 346.741C146.895 346.45 146.809 346.1 146.809 345.69C146.809 345.265 146.902 344.911 147.089 344.628C147.282 344.345 147.562 344.133 147.927 343.991C148.292 343.842 148.732 343.767 149.246 343.767H150.867V344.572H149.201C148.769 344.572 148.437 344.677 148.206 344.885C147.975 345.094 147.86 345.362 147.86 345.69C147.86 346.018 147.975 346.283 148.206 346.484C148.437 346.685 148.769 346.786 149.201 346.786C149.455 346.786 149.697 346.741 149.928 346.651C150.159 346.555 150.349 346.398 150.498 346.182C150.655 345.958 150.74 345.653 150.755 345.265L151.046 345.69C151.009 346.115 150.904 346.473 150.733 346.763C150.569 347.046 150.338 347.263 150.04 347.412C149.749 347.561 149.395 347.635 148.978 347.635ZM153.038 347.479V346.283L156.291 342.381V342.56L156.112 342.292L156.257 342.359H152.993V341.509H157.241V342.705L153.988 346.607V346.45L154.189 346.73L154.033 346.629H157.42V347.479H153.038ZM161.024 347.68C160.502 347.68 160.052 347.591 159.671 347.412C159.291 347.233 158.982 346.998 158.744 346.707C158.505 346.409 158.326 346.078 158.207 345.712C158.095 345.347 158.039 344.975 158.039 344.595V344.393C158.039 344.006 158.095 343.629 158.207 343.264C158.326 342.899 158.505 342.571 158.744 342.281C158.982 341.982 159.284 341.748 159.649 341.576C160.022 341.397 160.458 341.308 160.957 341.308C161.605 341.308 162.138 341.45 162.556 341.733C162.98 342.009 163.293 342.366 163.495 342.806C163.703 343.246 163.808 343.715 163.808 344.214V344.695H158.509V343.89H163.025L162.779 344.326C162.779 343.901 162.712 343.536 162.578 343.231C162.444 342.918 162.243 342.676 161.974 342.504C161.706 342.333 161.367 342.247 160.957 342.247C160.532 342.247 160.178 342.344 159.895 342.538C159.619 342.731 159.411 342.996 159.269 343.331C159.135 343.667 159.068 344.054 159.068 344.494C159.068 344.919 159.135 345.303 159.269 345.645C159.411 345.981 159.627 346.249 159.917 346.45C160.208 346.644 160.577 346.741 161.024 346.741C161.494 346.741 161.874 346.637 162.164 346.428C162.462 346.219 162.641 345.977 162.701 345.701H163.707C163.625 346.111 163.461 346.465 163.215 346.763C162.969 347.061 162.66 347.289 162.287 347.445C161.915 347.602 161.494 347.68 161.024 347.68ZM164.996 347.479V341.509H165.846V343.969H165.801C165.801 343.097 165.991 342.459 166.371 342.057C166.759 341.647 167.336 341.442 168.104 341.442H168.305V342.403H167.925C167.329 342.403 166.87 342.564 166.55 342.884C166.229 343.197 166.069 343.652 166.069 344.248V347.479H164.996ZM171.454 349.715V341.509H172.304V344.092L172.102 344.069C172.14 343.428 172.274 342.907 172.505 342.504C172.743 342.094 173.053 341.792 173.433 341.599C173.813 341.405 174.226 341.308 174.674 341.308C175.106 341.308 175.497 341.39 175.847 341.554C176.205 341.718 176.511 341.941 176.764 342.225C177.017 342.508 177.211 342.836 177.345 343.208C177.48 343.581 177.547 343.976 177.547 344.393V344.595C177.547 345.012 177.476 345.407 177.334 345.78C177.193 346.152 176.991 346.48 176.731 346.763C176.477 347.046 176.172 347.27 175.814 347.434C175.464 347.598 175.076 347.68 174.651 347.68C174.226 347.68 173.82 347.587 173.433 347.4C173.045 347.214 172.725 346.912 172.471 346.495C172.218 346.078 172.073 345.53 172.035 344.852L172.527 345.746V349.715H171.454ZM174.484 346.741C174.886 346.741 175.236 346.648 175.534 346.461C175.832 346.268 176.064 346.003 176.227 345.668C176.391 345.325 176.473 344.934 176.473 344.494C176.473 344.047 176.391 343.656 176.227 343.32C176.064 342.985 175.832 342.724 175.534 342.538C175.236 342.344 174.886 342.247 174.484 342.247C174.126 342.247 173.794 342.329 173.489 342.493C173.183 342.649 172.937 342.88 172.751 343.186C172.572 343.484 172.483 343.846 172.483 344.27V344.785C172.483 345.194 172.576 345.545 172.762 345.835C172.948 346.126 173.194 346.35 173.5 346.506C173.805 346.663 174.133 346.741 174.484 346.741ZM182.437 347.479V345.69H182.258V343.622C182.258 343.212 182.15 342.903 181.934 342.694C181.725 342.485 181.416 342.381 181.006 342.381C180.775 342.381 180.536 342.385 180.29 342.392C180.045 342.4 179.81 342.407 179.586 342.415C179.363 342.422 179.169 342.433 179.005 342.448V341.509C179.169 341.494 179.34 341.483 179.519 341.476C179.705 341.461 179.896 341.453 180.089 341.453C180.283 341.446 180.469 341.442 180.648 341.442C181.259 341.442 181.759 341.517 182.146 341.666C182.534 341.807 182.821 342.042 183.007 342.37C183.193 342.698 183.286 343.141 183.286 343.7V347.479H182.437ZM180.481 347.635C180.033 347.635 179.646 347.561 179.318 347.412C178.997 347.255 178.748 347.032 178.569 346.741C178.398 346.45 178.312 346.1 178.312 345.69C178.312 345.265 178.405 344.911 178.591 344.628C178.785 344.345 179.065 344.133 179.43 343.991C179.795 343.842 180.235 343.767 180.749 343.767H182.37V344.572H180.704C180.272 344.572 179.94 344.677 179.709 344.885C179.478 345.094 179.363 345.362 179.363 345.69C179.363 346.018 179.478 346.283 179.709 346.484C179.94 346.685 180.272 346.786 180.704 346.786C180.958 346.786 181.2 346.741 181.431 346.651C181.662 346.555 181.852 346.398 182.001 346.182C182.157 345.958 182.243 345.653 182.258 345.265L182.549 345.69C182.511 346.115 182.407 346.473 182.236 346.763C182.072 347.046 181.841 347.263 181.543 347.412C181.252 347.561 180.898 347.635 180.481 347.635ZM184.921 347.479V341.509H185.77V343.969H185.726C185.726 343.097 185.916 342.459 186.296 342.057C186.683 341.647 187.261 341.442 188.029 341.442H188.23V342.403H187.85C187.253 342.403 186.795 342.564 186.475 342.884C186.154 343.197 185.994 343.652 185.994 344.248V347.479H184.921ZM191.605 347.546C191.158 347.546 190.77 347.482 190.442 347.356C190.122 347.229 189.872 347.013 189.693 346.707C189.522 346.394 189.436 345.973 189.436 345.444V339.698H190.465V345.578C190.465 345.899 190.55 346.148 190.722 346.327C190.901 346.499 191.15 346.584 191.471 346.584H192.522V347.546H191.605ZM188.408 342.314V341.509H192.522V342.314H188.408ZM196.198 347.68C195.676 347.68 195.225 347.591 194.845 347.412C194.465 347.233 194.156 346.998 193.918 346.707C193.679 346.409 193.5 346.078 193.381 345.712C193.269 345.347 193.213 344.975 193.213 344.595V344.393C193.213 344.006 193.269 343.629 193.381 343.264C193.5 342.899 193.679 342.571 193.918 342.281C194.156 341.982 194.458 341.748 194.823 341.576C195.196 341.397 195.632 341.308 196.131 341.308C196.779 341.308 197.312 341.45 197.73 341.733C198.154 342.009 198.467 342.366 198.669 342.806C198.877 343.246 198.982 343.715 198.982 344.214V344.695H193.683V343.89H198.199L197.953 344.326C197.953 343.901 197.886 343.536 197.752 343.231C197.618 342.918 197.417 342.676 197.148 342.504C196.88 342.333 196.541 342.247 196.131 342.247C195.706 342.247 195.352 342.344 195.069 342.538C194.793 342.731 194.585 342.996 194.443 343.331C194.309 343.667 194.242 344.054 194.242 344.494C194.242 344.919 194.309 345.303 194.443 345.645C194.585 345.981 194.801 346.249 195.091 346.45C195.382 346.644 195.751 346.741 196.198 346.741C196.668 346.741 197.048 346.637 197.338 346.428C197.636 346.219 197.815 345.977 197.875 345.701H198.881C198.799 346.111 198.635 346.465 198.389 346.763C198.143 347.061 197.834 347.289 197.461 347.445C197.089 347.602 196.668 347.68 196.198 347.68ZM204.871 347.68C204.446 347.68 204.055 347.602 203.697 347.445C203.34 347.289 203.027 347.069 202.758 346.786C202.497 346.502 202.293 346.175 202.143 345.802C202.002 345.429 201.931 345.027 201.931 344.595V344.393C201.931 343.969 202.002 343.57 202.143 343.197C202.285 342.825 202.483 342.497 202.736 342.213C202.997 341.93 203.302 341.71 203.653 341.554C204.01 341.39 204.405 341.308 204.838 341.308C205.292 341.308 205.706 341.405 206.078 341.599C206.451 341.785 206.757 342.079 206.995 342.482C207.234 342.884 207.368 343.406 207.398 344.047L206.95 343.331V339.318H208.024V347.479H207.174V344.829H207.487C207.457 345.508 207.316 346.059 207.062 346.484C206.809 346.901 206.488 347.207 206.101 347.4C205.721 347.587 205.311 347.68 204.871 347.68ZM205.016 346.741C205.382 346.741 205.713 346.659 206.011 346.495C206.31 346.331 206.548 346.096 206.727 345.791C206.906 345.478 206.995 345.113 206.995 344.695V344.181C206.995 343.771 206.902 343.425 206.716 343.141C206.537 342.851 206.295 342.631 205.989 342.482C205.691 342.325 205.363 342.247 205.005 342.247C204.61 342.247 204.26 342.34 203.954 342.526C203.656 342.713 203.422 342.974 203.25 343.309C203.086 343.644 203.004 344.039 203.004 344.494C203.004 344.949 203.09 345.347 203.261 345.69C203.433 346.025 203.671 346.286 203.977 346.473C204.282 346.651 204.629 346.741 205.016 346.741ZM213.361 347.479V345.69H213.182V343.622C213.182 343.212 213.074 342.903 212.858 342.694C212.649 342.485 212.34 342.381 211.93 342.381C211.699 342.381 211.461 342.385 211.215 342.392C210.969 342.4 210.734 342.407 210.51 342.415C210.287 342.422 210.093 342.433 209.929 342.448V341.509C210.093 341.494 210.264 341.483 210.443 341.476C210.63 341.461 210.82 341.453 211.013 341.453C211.207 341.446 211.394 341.442 211.572 341.442C212.184 341.442 212.683 341.517 213.07 341.666C213.458 341.807 213.745 342.042 213.931 342.37C214.117 342.698 214.211 343.141 214.211 343.7V347.479H213.361ZM211.405 347.635C210.958 347.635 210.57 347.561 210.242 347.412C209.922 347.255 209.672 347.032 209.493 346.741C209.322 346.45 209.236 346.1 209.236 345.69C209.236 345.265 209.329 344.911 209.515 344.628C209.709 344.345 209.989 344.133 210.354 343.991C210.719 343.842 211.159 343.767 211.673 343.767H213.294V344.572H211.628C211.196 344.572 210.864 344.677 210.633 344.885C210.402 345.094 210.287 345.362 210.287 345.69C210.287 346.018 210.402 346.283 210.633 346.484C210.864 346.685 211.196 346.786 211.628 346.786C211.882 346.786 212.124 346.741 212.355 346.651C212.586 346.555 212.776 346.398 212.925 346.182C213.082 345.958 213.167 345.653 213.182 345.265L213.473 345.69C213.436 346.115 213.331 346.473 213.16 346.763C212.996 347.046 212.765 347.263 212.467 347.412C212.176 347.561 211.822 347.635 211.405 347.635ZM218.12 347.479V339.318H219.193V347.479H218.12ZM217.293 340.168V339.318H219.193V340.168H217.293ZM221.207 347.479V341.509H222.28V347.479H221.207ZM220.29 342.359V341.509H222.28V342.359H220.29ZM221.509 340.548C221.271 340.548 221.092 340.484 220.972 340.358C220.861 340.231 220.805 340.071 220.805 339.877C220.805 339.683 220.861 339.523 220.972 339.396C221.092 339.27 221.271 339.206 221.509 339.206C221.747 339.206 221.923 339.27 222.034 339.396C222.154 339.523 222.213 339.683 222.213 339.877C222.213 340.071 222.154 340.231 222.034 340.358C221.923 340.484 221.747 340.548 221.509 340.548ZM225.976 347.658C225.194 347.658 224.586 347.49 224.154 347.155C223.729 346.819 223.509 346.361 223.495 345.78H224.501C224.516 346.011 224.631 346.23 224.847 346.439C225.071 346.64 225.447 346.741 225.976 346.741C226.453 346.741 226.818 346.648 227.072 346.461C227.325 346.268 227.452 346.033 227.452 345.757C227.452 345.511 227.359 345.321 227.172 345.187C226.986 345.045 226.684 344.952 226.267 344.908L225.619 344.84C225.052 344.781 224.59 344.613 224.232 344.337C223.875 344.054 223.696 343.659 223.696 343.152C223.696 342.772 223.793 342.448 223.986 342.18C224.18 341.904 224.448 341.695 224.791 341.554C225.134 341.405 225.529 341.33 225.976 341.33C226.647 341.33 227.191 341.479 227.608 341.777C228.026 342.076 228.242 342.519 228.257 343.108H227.251C227.243 342.869 227.131 342.668 226.915 342.504C226.707 342.333 226.394 342.247 225.976 342.247C225.559 342.247 225.242 342.333 225.026 342.504C224.81 342.676 224.702 342.892 224.702 343.152C224.702 343.376 224.776 343.555 224.925 343.689C225.082 343.823 225.335 343.909 225.686 343.946L226.334 344.013C226.975 344.08 227.489 344.259 227.877 344.55C228.264 344.833 228.458 345.235 228.458 345.757C228.458 346.13 228.35 346.461 228.134 346.752C227.925 347.035 227.634 347.259 227.262 347.423C226.889 347.579 226.461 347.658 225.976 347.658ZM232.003 347.546C231.556 347.546 231.169 347.482 230.841 347.356C230.52 347.229 230.27 347.013 230.092 346.707C229.92 346.394 229.835 345.973 229.835 345.444V339.698H230.863V345.578C230.863 345.899 230.949 346.148 231.12 346.327C231.299 346.499 231.549 346.584 231.869 346.584H232.92V347.546H232.003ZM228.806 342.314V341.509H232.92V342.314H228.806ZM237.691 347.479V345.69H237.513V343.622C237.513 343.212 237.404 342.903 237.188 342.694C236.98 342.485 236.67 342.381 236.26 342.381C236.029 342.381 235.791 342.385 235.545 342.392C235.299 342.4 235.064 342.407 234.841 342.415C234.617 342.422 234.423 342.433 234.259 342.448V341.509C234.423 341.494 234.595 341.483 234.774 341.476C234.96 341.461 235.15 341.453 235.344 341.453C235.538 341.446 235.724 341.442 235.903 341.442C236.514 341.442 237.013 341.517 237.401 341.666C237.788 341.807 238.075 342.042 238.262 342.37C238.448 342.698 238.541 343.141 238.541 343.7V347.479H237.691ZM235.735 347.635C235.288 347.635 234.9 347.561 234.572 347.412C234.252 347.255 234.002 347.032 233.823 346.741C233.652 346.45 233.566 346.1 233.566 345.69C233.566 345.265 233.66 344.911 233.846 344.628C234.04 344.345 234.319 344.133 234.684 343.991C235.049 343.842 235.489 343.767 236.003 343.767H237.624V344.572H235.959C235.526 344.572 235.195 344.677 234.964 344.885C234.733 345.094 234.617 345.362 234.617 345.69C234.617 346.018 234.733 346.283 234.964 346.484C235.195 346.685 235.526 346.786 235.959 346.786C236.212 346.786 236.454 346.741 236.685 346.651C236.916 346.555 237.106 346.398 237.255 346.182C237.412 345.958 237.498 345.653 237.513 345.265L237.803 345.69C237.766 346.115 237.662 346.473 237.49 346.763C237.326 347.046 237.095 347.263 236.797 347.412C236.506 347.561 236.152 347.635 235.735 347.635ZM244.876 347.68C244.452 347.68 244.06 347.602 243.703 347.445C243.345 347.289 243.032 347.069 242.764 346.786C242.503 346.502 242.298 346.175 242.149 345.802C242.007 345.429 241.936 345.027 241.936 344.595V344.393C241.936 343.969 242.007 343.57 242.149 343.197C242.29 342.825 242.488 342.497 242.741 342.213C243.002 341.93 243.308 341.71 243.658 341.554C244.016 341.39 244.411 341.308 244.843 341.308C245.298 341.308 245.711 341.405 246.084 341.599C246.456 341.785 246.762 342.079 247 342.482C247.239 342.884 247.373 343.406 247.403 344.047L246.956 343.331V339.318H248.029V347.479H247.179V344.829H247.492C247.463 345.508 247.321 346.059 247.068 346.484C246.814 346.901 246.494 347.207 246.106 347.4C245.726 347.587 245.316 347.68 244.876 347.68ZM245.022 346.741C245.387 346.741 245.719 346.659 246.017 346.495C246.315 346.331 246.553 346.096 246.732 345.791C246.911 345.478 247 345.113 247 344.695V344.181C247 343.771 246.907 343.425 246.721 343.141C246.542 342.851 246.3 342.631 245.994 342.482C245.696 342.325 245.368 342.247 245.011 342.247C244.616 342.247 244.265 342.34 243.96 342.526C243.662 342.713 243.427 342.974 243.256 343.309C243.092 343.644 243.01 344.039 243.01 344.494C243.01 344.949 243.095 345.347 243.267 345.69C243.438 346.025 243.677 346.286 243.982 346.473C244.288 346.651 244.634 346.741 245.022 346.741ZM252.293 347.68C251.771 347.68 251.321 347.591 250.941 347.412C250.56 347.233 250.251 346.998 250.013 346.707C249.774 346.409 249.595 346.078 249.476 345.712C249.364 345.347 249.308 344.975 249.308 344.595V344.393C249.308 344.006 249.364 343.629 249.476 343.264C249.595 342.899 249.774 342.571 250.013 342.281C250.251 341.982 250.553 341.748 250.918 341.576C251.291 341.397 251.727 341.308 252.226 341.308C252.874 341.308 253.407 341.45 253.825 341.733C254.249 342.009 254.562 342.366 254.764 342.806C254.972 343.246 255.077 343.715 255.077 344.214V344.695H249.778V343.89H254.294L254.048 344.326C254.048 343.901 253.981 343.536 253.847 343.231C253.713 342.918 253.512 342.676 253.243 342.504C252.975 342.333 252.636 342.247 252.226 342.247C251.801 342.247 251.447 342.344 251.164 342.538C250.888 342.731 250.68 342.996 250.538 343.331C250.404 343.667 250.337 344.054 250.337 344.494C250.337 344.919 250.404 345.303 250.538 345.645C250.68 345.981 250.896 346.249 251.186 346.45C251.477 346.644 251.846 346.741 252.293 346.741C252.763 346.741 253.143 346.637 253.433 346.428C253.732 346.219 253.91 345.977 253.97 345.701H254.976C254.894 346.111 254.73 346.465 254.484 346.763C254.238 347.061 253.929 347.289 253.556 347.445C253.184 347.602 252.763 347.68 252.293 347.68ZM261.011 347.68C260.489 347.68 260.038 347.591 259.658 347.412C259.278 347.233 258.969 346.998 258.73 346.707C258.492 346.409 258.313 346.078 258.194 345.712C258.082 345.347 258.026 344.975 258.026 344.595V344.393C258.026 344.006 258.082 343.629 258.194 343.264C258.313 342.899 258.492 342.571 258.73 342.281C258.969 341.982 259.271 341.748 259.636 341.576C260.009 341.397 260.445 341.308 260.944 341.308C261.592 341.308 262.125 341.45 262.543 341.733C262.967 342.009 263.28 342.366 263.482 342.806C263.69 343.246 263.795 343.715 263.795 344.214V344.695H258.496V343.89H263.012L262.766 344.326C262.766 343.901 262.699 343.536 262.565 343.231C262.431 342.918 262.23 342.676 261.961 342.504C261.693 342.333 261.354 342.247 260.944 342.247C260.519 342.247 260.165 342.344 259.882 342.538C259.606 342.731 259.398 342.996 259.256 343.331C259.122 343.667 259.055 344.054 259.055 344.494C259.055 344.919 259.122 345.303 259.256 345.645C259.398 345.981 259.614 346.249 259.904 346.45C260.195 346.644 260.564 346.741 261.011 346.741C261.481 346.741 261.861 346.637 262.151 346.428C262.449 346.219 262.628 345.977 262.688 345.701H263.694C263.612 346.111 263.448 346.465 263.202 346.763C262.956 347.061 262.647 347.289 262.274 347.445C261.902 347.602 261.481 347.68 261.011 347.68ZM266.939 347.658C266.157 347.658 265.549 347.49 265.117 347.155C264.692 346.819 264.472 346.361 264.458 345.78H265.464C265.479 346.011 265.594 346.23 265.81 346.439C266.034 346.64 266.41 346.741 266.939 346.741C267.416 346.741 267.781 346.648 268.035 346.461C268.288 346.268 268.415 346.033 268.415 345.757C268.415 345.511 268.322 345.321 268.135 345.187C267.949 345.045 267.647 344.952 267.23 344.908L266.582 344.84C266.015 344.781 265.553 344.613 265.195 344.337C264.838 344.054 264.659 343.659 264.659 343.152C264.659 342.772 264.756 342.448 264.949 342.18C265.143 341.904 265.411 341.695 265.754 341.554C266.097 341.405 266.492 341.33 266.939 341.33C267.61 341.33 268.154 341.479 268.571 341.777C268.989 342.076 269.205 342.519 269.22 343.108H268.214C268.206 342.869 268.094 342.668 267.878 342.504C267.67 342.333 267.357 342.247 266.939 342.247C266.522 342.247 266.205 342.333 265.989 342.504C265.773 342.676 265.665 342.892 265.665 343.152C265.665 343.376 265.739 343.555 265.888 343.689C266.045 343.823 266.298 343.909 266.649 343.946L267.297 344.013C267.938 344.08 268.452 344.259 268.84 344.55C269.227 344.833 269.421 345.235 269.421 345.757C269.421 346.13 269.313 346.461 269.097 346.752C268.888 347.035 268.597 347.259 268.225 347.423C267.852 347.579 267.424 347.658 266.939 347.658ZM270.641 349.715V341.509H271.491V344.092L271.289 344.069C271.327 343.428 271.461 342.907 271.692 342.504C271.93 342.094 272.24 341.792 272.62 341.599C273 341.405 273.413 341.308 273.86 341.308C274.293 341.308 274.684 341.39 275.034 341.554C275.392 341.718 275.698 341.941 275.951 342.225C276.204 342.508 276.398 342.836 276.532 343.208C276.666 343.581 276.733 343.976 276.733 344.393V344.595C276.733 345.012 276.663 345.407 276.521 345.78C276.379 346.152 276.178 346.48 275.917 346.763C275.664 347.046 275.358 347.27 275.001 347.434C274.65 347.598 274.263 347.68 273.838 347.68C273.413 347.68 273.007 347.587 272.62 347.4C272.232 347.214 271.912 346.912 271.658 346.495C271.405 346.078 271.26 345.53 271.222 344.852L271.714 345.746V349.715H270.641ZM273.67 346.741C274.073 346.741 274.423 346.648 274.721 346.461C275.019 346.268 275.25 346.003 275.414 345.668C275.578 345.325 275.66 344.934 275.66 344.494C275.66 344.047 275.578 343.656 275.414 343.32C275.25 342.985 275.019 342.724 274.721 342.538C274.423 342.344 274.073 342.247 273.67 342.247C273.313 342.247 272.981 342.329 272.676 342.493C272.37 342.649 272.124 342.88 271.938 343.186C271.759 343.484 271.669 343.846 271.669 344.27V344.785C271.669 345.194 271.763 345.545 271.949 345.835C272.135 346.126 272.381 346.35 272.687 346.506C272.992 346.663 273.32 346.741 273.67 346.741ZM280.551 347.68C280.029 347.68 279.578 347.591 279.198 347.412C278.818 347.233 278.509 346.998 278.27 346.707C278.032 346.409 277.853 346.078 277.733 345.712C277.622 345.347 277.566 344.975 277.566 344.595V344.393C277.566 344.006 277.622 343.629 277.733 343.264C277.853 342.899 278.032 342.571 278.27 342.281C278.509 341.982 278.81 341.748 279.176 341.576C279.548 341.397 279.984 341.308 280.483 341.308C281.132 341.308 281.665 341.45 282.082 341.733C282.507 342.009 282.82 342.366 283.021 342.806C283.23 343.246 283.334 343.715 283.334 344.214V344.695H278.035V343.89H282.552L282.306 344.326C282.306 343.901 282.239 343.536 282.104 343.231C281.97 342.918 281.769 342.676 281.501 342.504C281.232 342.333 280.893 342.247 280.483 342.247C280.059 342.247 279.705 342.344 279.421 342.538C279.146 342.731 278.937 342.996 278.795 343.331C278.661 343.667 278.594 344.054 278.594 344.494C278.594 344.919 278.661 345.303 278.795 345.645C278.937 345.981 279.153 346.249 279.444 346.45C279.735 346.644 280.103 346.741 280.551 346.741C281.02 346.741 281.4 346.637 281.691 346.428C281.989 346.219 282.168 345.977 282.227 345.701H283.234C283.152 346.111 282.988 346.465 282.742 346.763C282.496 347.061 282.186 347.289 281.814 347.445C281.441 347.602 281.02 347.68 280.551 347.68ZM284.522 347.479V341.509H285.372V343.969H285.327C285.327 343.097 285.517 342.459 285.897 342.057C286.285 341.647 286.863 341.442 287.63 341.442H287.831V342.403H287.451C286.855 342.403 286.397 342.564 286.076 342.884C285.756 343.197 285.596 343.652 285.596 344.248V347.479H284.522ZM292.361 347.479V345.69H292.182V343.622C292.182 343.212 292.074 342.903 291.858 342.694C291.649 342.485 291.34 342.381 290.93 342.381C290.699 342.381 290.461 342.385 290.215 342.392C289.969 342.4 289.734 342.407 289.511 342.415C289.287 342.422 289.093 342.433 288.929 342.448V341.509C289.093 341.494 289.265 341.483 289.443 341.476C289.63 341.461 289.82 341.453 290.014 341.453C290.207 341.446 290.394 341.442 290.573 341.442C291.184 341.442 291.683 341.517 292.071 341.666C292.458 341.807 292.745 342.042 292.931 342.37C293.118 342.698 293.211 343.141 293.211 343.7V347.479H292.361ZM290.405 347.635C289.958 347.635 289.57 347.561 289.242 347.412C288.922 347.255 288.672 347.032 288.493 346.741C288.322 346.45 288.236 346.1 288.236 345.69C288.236 345.265 288.329 344.911 288.516 344.628C288.709 344.345 288.989 344.133 289.354 343.991C289.719 343.842 290.159 343.767 290.673 343.767H292.294V344.572H290.628C290.196 344.572 289.865 344.677 289.634 344.885C289.403 345.094 289.287 345.362 289.287 345.69C289.287 346.018 289.403 346.283 289.634 346.484C289.865 346.685 290.196 346.786 290.628 346.786C290.882 346.786 291.124 346.741 291.355 346.651C291.586 346.555 291.776 346.398 291.925 346.182C292.082 345.958 292.167 345.653 292.182 345.265L292.473 345.69C292.436 346.115 292.331 346.473 292.16 346.763C291.996 347.046 291.765 347.263 291.467 347.412C291.176 347.561 290.822 347.635 290.405 347.635Z" fill="#F67ACB"/>
<path d="M130.079 400.794L123.918 406.955L120.221 403.259" stroke="#F67ACB" stroke-width="1.34455" stroke-linecap="round" stroke-linejoin="round"/>
<rect x="144.421" y="402.978" width="62.7455" height="1.79273" fill="white"/>
<path d="M130.079 435.639L123.918 441.801L120.221 438.104" stroke="#F67ACB" stroke-width="1.34455" stroke-linecap="round" stroke-linejoin="round"/>
<rect x="144.421" y="437.823" width="62.7455" height="1.79273" fill="white"/>
<path d="M333.86 349.447C333.676 349.391 333.485 349.329 333.288 349.262C333.102 349.193 332.919 349.082 332.738 348.93C332.571 348.788 332.415 348.579 332.272 348.303C332.124 347.967 332.013 347.635 331.937 347.306C331.873 346.975 331.829 346.589 331.804 346.147C331.753 345.528 331.749 344.989 331.795 344.529C331.852 344.057 331.956 343.574 332.106 343.082C332.128 343.044 332.161 342.94 332.207 342.768C332.263 342.583 332.324 342.386 332.391 342.177C332.469 341.966 332.527 341.806 332.566 341.695C332.645 341.484 332.765 341.204 332.928 340.855C333.102 340.493 333.288 340.141 333.487 339.801C333.79 339.259 334.042 338.831 334.244 338.514C334.446 338.197 334.639 337.929 334.825 337.71C335.01 337.491 335.221 337.281 335.456 337.082C335.702 336.87 336.016 336.61 336.398 336.301C336.644 336.089 336.921 335.964 337.231 335.927C337.551 335.888 337.855 335.935 338.141 336.066C338.427 336.187 338.648 336.384 338.803 336.659C338.954 336.898 339.045 337.196 339.075 337.553C339.104 337.899 339.081 338.272 339.006 338.675C338.931 339.065 338.813 339.44 338.651 339.802C338.489 340.163 338.293 340.468 338.062 340.714C337.918 340.87 337.78 340.935 337.646 340.911C337.524 340.885 337.373 340.802 337.194 340.661C337.069 340.468 337 340.353 336.985 340.319C336.982 340.283 337.004 340.257 337.051 340.241C337.115 340.151 337.198 340.001 337.301 339.788C337.403 339.576 337.504 339.352 337.604 339.115C337.704 338.868 337.771 338.669 337.807 338.522C337.86 338.014 337.897 337.657 337.916 337.452C337.933 337.235 337.884 337.078 337.768 336.979C337.717 336.935 337.643 336.923 337.549 336.943C337.466 336.962 337.328 337.034 337.135 337.157C336.871 337.3 336.536 337.597 336.13 338.051C335.723 338.493 335.356 338.979 335.028 339.51C334.605 340.181 334.253 340.774 333.972 341.29C333.691 341.804 333.488 342.325 333.365 342.851C333.345 342.9 333.31 342.994 333.262 343.13C333.225 343.264 333.207 343.331 333.207 343.331C333.223 343.379 333.215 343.499 333.183 343.694C333.15 343.876 333.109 344.036 333.061 344.171C332.976 344.731 332.946 345.309 332.972 345.906C332.996 346.492 333.07 347.007 333.191 347.453C333.323 347.898 333.487 348.201 333.68 348.365C333.844 348.46 334.056 348.478 334.315 348.42C334.586 348.362 334.889 348.252 335.223 348.093C335.557 347.933 335.897 347.76 336.241 347.577C336.517 347.433 336.768 347.281 336.994 347.118C337.221 346.955 337.389 346.815 337.499 346.697C337.588 346.618 337.701 346.537 337.838 346.453C337.986 346.358 338.114 346.305 338.221 346.296C338.383 346.222 338.477 346.191 338.501 346.201C338.526 346.211 338.542 346.263 338.55 346.358C338.565 346.525 338.484 346.718 338.311 346.936C338.149 347.154 337.932 347.357 337.66 347.548C337.572 347.651 337.456 347.763 337.31 347.883C337.164 348.003 337.01 348.1 336.849 348.173C336.614 348.384 336.32 348.595 335.966 348.805C335.612 349.013 335.248 349.182 334.874 349.309C334.513 349.436 334.175 349.481 333.86 349.447ZM343.231 348.145C343.187 348.196 343.135 348.218 343.075 348.211C343.015 348.217 342.917 348.195 342.781 348.146C342.55 348.105 342.4 348.028 342.33 347.914C342.274 347.811 342.294 347.623 342.391 347.351C342.432 347.264 342.476 347.08 342.526 346.8C342.585 346.507 342.647 346.173 342.711 345.796C342.776 345.418 342.84 345.041 342.905 344.663C342.969 344.287 343.026 343.958 343.074 343.678C343.122 343.386 343.154 343.192 343.17 343.095C343.162 343 343.17 342.807 343.193 342.517C343.229 342.226 343.256 341.9 343.274 341.539C343.384 341.278 343.451 340.996 343.473 340.694C343.508 340.392 343.531 340.174 343.545 340.041C343.576 339.846 343.613 339.639 343.655 339.421C343.709 339.2 343.75 338.98 343.78 338.763C343.812 338.567 343.842 338.367 343.874 338.161C343.916 337.953 343.935 337.82 343.93 337.761L343.906 337.475L343.245 337.529C343.068 337.556 342.805 337.579 342.459 337.595C342.112 337.612 341.802 337.631 341.529 337.655C340.967 337.677 340.588 337.656 340.389 337.588C340.203 337.508 340.087 337.337 340.042 337.078C340.006 336.936 340.026 336.833 340.105 336.766C340.183 336.699 340.377 336.647 340.686 336.61C340.995 336.572 341.471 336.538 342.117 336.508C342.615 336.443 343.05 336.406 343.421 336.4C343.791 336.381 344 336.369 344.048 336.365C344.091 336.314 344.117 336.264 344.125 336.215C344.133 336.166 344.147 336.118 344.167 336.067C344.161 336.008 344.162 335.942 344.168 335.869C344.185 335.784 344.239 335.72 344.332 335.676C344.412 335.489 344.514 335.409 344.636 335.434C344.768 335.448 344.908 335.544 345.055 335.724C345.112 335.827 345.164 335.936 345.208 336.053C345.267 336.168 345.341 336.269 345.432 336.358C345.475 336.306 345.598 336.266 345.8 336.237C346.002 336.208 346.215 336.178 346.44 336.148C346.714 336.125 346.957 336.099 347.171 336.069C347.384 336.027 347.531 336.003 347.614 335.996C347.717 335.927 347.852 335.886 348.018 335.872C348.197 335.858 348.376 335.854 348.557 335.863C348.831 335.841 349.022 335.836 349.132 335.851C349.253 335.866 349.333 335.901 349.375 335.957C349.378 336.005 349.383 336.052 349.386 336.1C349.402 336.146 349.436 336.192 349.488 336.236C349.54 336.279 349.566 336.313 349.568 336.336C349.569 336.349 349.549 336.404 349.51 336.504C349.466 336.555 349.386 336.603 349.27 336.649C349.153 336.683 349.023 336.706 348.88 336.718C348.796 336.724 348.655 336.749 348.454 336.789C348.253 336.818 348.08 336.838 347.938 336.851C347.668 336.921 347.361 336.989 347.019 337.053C346.687 337.104 346.314 337.16 345.899 337.218C345.721 337.233 345.555 337.259 345.402 337.295C345.249 337.32 345.174 337.363 345.179 337.423C345.131 337.426 345.077 337.557 345.014 337.813C344.964 338.07 344.913 338.338 344.865 338.617C344.819 338.933 344.765 339.208 344.7 339.441C344.647 339.673 344.6 339.828 344.558 339.903C344.61 339.946 344.633 340.004 344.627 340.077C344.633 340.148 344.608 340.277 344.551 340.461C344.517 340.632 344.48 340.767 344.441 340.866C344.413 340.964 344.403 341.061 344.411 341.156C344.411 341.156 344.389 341.254 344.346 341.449C344.313 341.632 344.284 341.862 344.259 342.14C344.257 342.405 344.24 342.628 344.207 342.811C344.186 342.992 344.154 343.108 344.11 343.16C344.11 343.16 344.091 343.204 344.049 343.291C344.008 343.366 343.991 343.452 343.999 343.547C344.008 343.654 343.999 343.835 343.972 344.089C343.956 344.33 343.934 344.56 343.903 344.778C343.874 344.997 343.842 345.12 343.808 345.147C343.929 345.16 343.925 345.322 343.795 345.633C343.805 345.752 343.797 345.873 343.771 345.995C343.745 346.116 343.735 346.202 343.738 346.249C343.686 346.481 343.624 346.739 343.551 347.021C343.478 347.302 343.415 347.548 343.36 347.756C343.307 347.976 343.264 348.105 343.231 348.145ZM346.781 347.957C346.556 347.855 346.426 347.734 346.391 347.594C346.367 347.451 346.429 347.194 346.578 346.822C346.727 346.45 346.961 345.873 347.28 345.09C347.521 344.531 347.7 344.096 347.819 343.786C347.948 343.464 348.03 343.235 348.067 343.1C348.115 342.964 348.139 342.878 348.135 342.842C348.103 342.737 348.107 342.653 348.15 342.589C348.191 342.514 348.264 342.448 348.367 342.391C348.422 342.327 348.509 342.212 348.626 342.046C348.756 341.879 348.872 341.684 348.973 341.459C349.06 341.2 349.163 340.934 349.284 340.659C349.406 340.386 349.569 340.043 349.774 339.629C349.979 339.205 350.245 338.655 350.572 337.98C350.776 337.544 351.002 337.098 351.253 336.645C351.502 336.181 351.769 335.721 352.055 335.266C352.172 335.088 352.28 334.947 352.379 334.843C352.478 334.726 352.581 334.67 352.689 334.673C352.832 334.661 352.997 334.696 353.183 334.776C353.381 334.855 353.565 334.966 353.733 335.108C353.9 335.25 354.028 335.407 354.114 335.58C354.181 335.67 354.222 335.871 354.236 336.181C354.25 336.492 354.257 336.869 354.258 337.312C354.259 337.756 354.257 338.23 354.251 338.735C354.256 339.226 354.251 339.808 354.235 340.481C354.219 341.154 354.205 341.856 354.194 342.589C354.195 343.321 354.207 344.027 354.228 344.709C354.247 345.379 354.296 345.962 354.374 346.46C354.394 346.566 354.403 346.667 354.399 346.764C354.395 346.86 354.395 346.938 354.401 346.998C354.335 347.075 354.219 347.114 354.05 347.116C353.896 347.129 353.738 347.106 353.577 347.048C353.428 346.989 353.337 346.906 353.304 346.8C353.266 346.768 353.238 346.722 353.221 346.664C353.216 346.592 353.209 346.449 353.203 346.234C353.198 346.018 353.181 345.678 353.154 345.212L353.002 342.31L352.771 342.348C352.664 342.357 352.463 342.386 352.167 342.434C351.871 342.483 351.553 342.545 351.211 342.622C350.869 342.686 350.551 342.755 350.257 342.828C349.974 342.887 349.781 342.939 349.676 342.984C349.569 342.993 349.444 343.075 349.301 343.231C349.17 343.386 349.048 343.582 348.936 343.819C348.902 343.989 348.828 344.176 348.713 344.378C348.609 344.566 348.559 344.69 348.564 344.749C348.485 344.816 348.42 344.894 348.368 344.982C348.327 345.069 348.307 345.113 348.307 345.113C348.312 345.184 348.268 345.368 348.173 345.664C348.088 345.946 347.977 346.268 347.839 346.626C347.7 346.974 347.558 347.28 347.413 347.544L347.084 348.147L346.781 347.957ZM349.999 341.895C349.999 341.895 350.058 341.878 350.175 341.844C350.304 341.81 350.451 341.774 350.615 341.736C350.791 341.686 350.95 341.654 351.094 341.643C351.583 341.481 351.941 341.374 352.164 341.319C352.386 341.253 352.539 341.216 352.622 341.209C352.718 341.201 352.802 341.212 352.877 341.242C352.93 341.298 352.974 341.33 353.011 341.339C353.06 341.346 353.084 341.35 353.084 341.35C353.094 341.325 353.1 341.187 353.104 340.935C353.106 340.683 353.11 340.371 353.115 339.999C353.132 339.625 353.142 339.24 353.145 338.845C353.159 338.436 353.164 338.064 353.16 337.728C353.155 337.38 353.151 337.117 353.147 336.938C353.14 336.71 353.136 336.507 353.133 336.327C353.129 336.135 353.127 336.04 353.127 336.04C353.055 336.046 352.912 336.19 352.695 336.472C352.49 336.752 352.264 337.12 352.014 337.572C351.763 338.024 351.533 338.505 351.324 339.015C351.224 339.251 351.128 339.463 351.036 339.65C350.943 339.838 350.867 339.934 350.807 339.939C350.786 339.965 350.723 340.078 350.62 340.278C350.527 340.466 350.426 340.684 350.315 340.934C350.203 341.171 350.113 341.388 350.045 341.585C349.977 341.772 349.962 341.875 349.999 341.895Z" fill="#F67ACB"/>
</g>
<path d="M26.1036 108.947C26.1036 93.0174 39.0174 80.1036 54.9473 80.1036H989.535C1005.46 80.1036 1018.38 93.0174 1018.38 108.947H1016.59C1016.59 94.0075 1004.47 81.8964 989.535 81.8964H54.9473C40.0075 81.8964 27.8964 94.0075 27.8964 108.947H26.1036ZM1017.48 555.176H27H1017.48ZM26.1036 555.176V108.947C26.1036 93.0174 39.0174 80.1036 54.9473 80.1036V81.8964C40.0075 81.8964 27.8964 94.0075 27.8964 108.947V555.176H26.1036ZM989.535 80.1036C1005.46 80.1036 1018.38 93.0174 1018.38 108.947V555.176H1016.59V108.947C1016.59 94.0075 1004.47 81.8964 989.535 81.8964V80.1036Z" fill="white" mask="url(#path-1-inside-1_69_1418)"/>
<path d="M21.1037 62.9237C21.1037 62.9237 21.0883 62.9113 21.0575 62.8865C21.0254 62.8722 20.9821 62.8565 20.9276 62.8396C20.8843 62.8239 20.8292 62.8123 20.7622 62.8045C20.589 62.742 20.4729 62.6328 20.4138 62.4769C20.3534 62.3314 20.3565 62.1774 20.423 62.0146C20.4732 61.9778 20.5183 61.8924 20.5584 61.7585C20.5985 61.6247 20.6241 61.5158 20.635 61.4319C20.6906 61.353 20.726 61.2986 20.7413 61.2683C20.7579 61.2277 20.7995 61.126 20.8661 60.9632C20.9228 60.7886 21.0108 60.5484 21.13 60.2426C21.2617 59.9276 21.4018 59.5922 21.5501 59.2364C21.7096 58.882 21.8615 58.5427 22.0058 58.2184C22.1501 57.8942 22.2763 57.6211 22.3846 57.3992C22.504 57.1787 22.5825 57.0546 22.6201 57.0269C22.6201 57.0269 22.6221 57.0112 22.6262 56.9797C22.6317 56.9377 22.6372 56.8958 22.6427 56.8537C22.6427 56.8537 22.6544 56.8072 22.6779 56.7141C22.7138 56.6117 22.7847 56.5027 22.8905 56.387C22.9502 56.2767 23.0057 56.1553 23.057 56.0227C23.1082 55.8901 23.1366 55.8029 23.1421 55.7609C23.1936 55.7136 23.2714 55.5947 23.3755 55.4043C23.4922 55.2047 23.6027 55.0097 23.7068 54.8193C23.7957 54.6591 23.8915 54.489 23.9943 54.3092C24.1082 54.1306 24.202 53.9763 24.2756 53.8462C24.3604 53.7176 24.4028 53.6532 24.4028 53.6532C24.4082 53.6112 24.411 53.5902 24.411 53.5902C24.4124 53.5797 24.413 53.5745 24.413 53.5745C24.4632 53.5376 24.5966 53.34 24.8133 52.9814C25.0426 52.6138 25.3476 52.1429 25.7284 51.569C25.7841 51.4901 25.8522 51.4021 25.9329 51.3048C26.0136 51.2076 26.0566 51.1381 26.0621 51.0961C26.1289 51.0185 26.2118 50.9908 26.3109 51.0129C26.4114 51.0245 26.5078 51.0675 26.6001 51.142C26.7036 51.2178 26.7757 51.3167 26.8165 51.4385L26.9512 51.7097L26.2005 52.7736C25.9836 53.0469 25.7979 53.2972 25.6437 53.5244C25.5006 53.7529 25.4263 53.8882 25.4208 53.9301C25.4208 53.9301 25.3763 54.0102 25.2875 54.1704C25.1986 54.3306 25.0944 54.521 24.975 54.7415C24.8556 54.9622 24.7501 55.163 24.6585 55.3442C24.4933 55.6554 24.3411 55.9095 24.2021 56.1066C24.0743 56.3049 24.0076 56.425 24.0021 56.467C24.0049 56.446 24.1298 56.4444 24.3768 56.4621C24.6238 56.4799 24.9372 56.5107 25.3169 56.5543C25.6965 56.5981 26.0818 56.6424 26.4726 56.6874C26.876 56.7232 27.2285 56.7583 27.5299 56.7931C27.844 56.8186 28.0582 56.8272 28.1726 56.8191L29.0538 56.8406L29.8346 55.2848C29.9622 55.0013 30.126 54.6579 30.3259 54.2549C30.5258 53.8518 30.7006 53.5098 30.8506 53.2288C31.0921 52.7667 31.2707 52.4837 31.3863 52.3798C31.5018 52.2759 31.6266 52.2317 31.7606 52.2471C31.7941 52.251 31.8374 52.2666 31.8905 52.294C31.9561 52.3122 32.0141 52.3455 32.0645 52.3939C32.1273 52.4331 32.1658 52.4855 32.18 52.551C32.299 52.6819 32.3433 52.8201 32.313 52.9657C32.2938 53.1127 32.1792 53.2965 31.9691 53.5173C31.7535 53.7801 31.5625 54.0723 31.3958 54.394C31.2418 54.7065 31.1064 54.9625 30.9897 55.1621C30.9733 55.2881 30.9428 55.391 30.8984 55.4711C30.8553 55.5407 30.8087 55.594 30.7586 55.6308C30.7336 55.6492 30.6786 55.7228 30.5939 55.8515C30.5091 55.9802 30.4299 56.1096 30.3562 56.2396C30.2826 56.3696 30.2438 56.4503 30.2397 56.4818C30.2301 56.5552 30.2018 56.6425 30.1545 56.7436C30.1074 56.8447 30.0588 56.9136 30.0086 56.9505C29.9781 57.0109 29.9073 57.1625 29.7963 57.4054C29.6853 57.6482 29.557 57.937 29.4114 58.2718C29.2672 58.596 29.118 58.9144 28.9639 59.2268C28.8112 59.5288 28.6766 59.7796 28.5599 59.9792C28.5503 60.0527 28.5101 60.1439 28.4392 60.2529C28.3697 60.3514 28.3295 60.4426 28.3185 60.5266C28.2574 60.6474 28.1811 60.7984 28.0895 60.9795C27.9979 61.1608 27.9486 61.2776 27.9418 61.33C27.8546 61.565 27.761 61.8046 27.6612 62.0487C27.5725 62.2941 27.4943 62.5034 27.4263 62.6767C27.3682 62.8618 27.3371 62.97 27.333 63.0015C27.2829 63.0384 27.2152 63.0359 27.1299 62.9941C27.0447 62.9524 26.9434 62.9034 26.8261 62.8473C26.6289 62.7075 26.517 62.5668 26.49 62.4251C26.473 62.2954 26.5415 62.1169 26.6959 61.8897C26.7626 61.8122 26.8563 61.6152 26.9768 61.2989C27.1099 60.9734 27.2423 60.6531 27.374 60.338C27.4615 60.1883 27.5615 59.9868 27.6739 59.7335C27.7876 59.4696 27.9013 59.2057 28.015 58.9419C28.1301 58.6676 28.2278 58.4391 28.3083 58.2566C28.3901 58.0637 28.4436 57.958 28.4686 57.9396C28.4741 57.8976 28.4788 57.8609 28.483 57.8294C28.4871 57.798 28.4891 57.7822 28.4891 57.7822C28.4696 57.7586 28.332 57.7268 28.0766 57.6868C27.8224 57.6362 27.5048 57.5944 27.1239 57.5612C26.7441 57.5175 26.3464 57.4823 25.9305 57.4558C25.5271 57.42 25.1607 57.4045 24.8314 57.4092C24.7086 57.3951 24.569 57.379 24.4127 57.361C24.2563 57.3431 24.1335 57.3289 24.0442 57.3186C23.9214 57.3045 23.8153 57.2923 23.7259 57.282C23.6478 57.273 23.6087 57.2685 23.6087 57.2685C23.5934 57.2987 23.54 57.4044 23.4484 57.5856C23.3567 57.7668 23.2485 57.9886 23.1236 58.2512C23.0001 58.5033 22.8696 58.7652 22.7322 59.037C22.6073 59.2995 22.4963 59.5424 22.3992 59.7655C22.3147 59.9795 22.2551 60.1324 22.2205 60.2243C22.1512 60.4081 22.059 60.6371 21.9439 60.9115C21.84 61.1871 21.7242 61.4667 21.5966 61.7502C21.4788 62.0455 21.372 62.2996 21.2763 62.5122C21.1917 62.7262 21.1342 62.8634 21.1037 62.9237ZM33.2295 62.4338C32.9704 62.5957 32.6825 62.6744 32.3657 62.67C32.0601 62.6667 31.7697 62.5907 31.4944 62.4418C31.2204 62.2825 31.005 62.066 30.848 61.7923C30.6882 61.5396 30.5995 61.2631 30.582 60.9628C30.5658 60.6521 30.6115 60.2579 30.719 59.7803C30.8059 59.3749 30.9988 58.9817 31.2978 58.6007C31.5981 58.2092 31.9426 57.8707 32.3312 57.5852C32.731 57.301 33.1121 57.1159 33.4746 57.0298C33.6559 56.9441 33.8016 56.913 33.9119 56.9363C34.0347 56.9505 34.2176 56.9822 34.4605 57.0314C34.7133 57.0925 34.897 57.1615 35.0115 57.2386C35.1374 57.317 35.2325 57.4132 35.297 57.5271C35.444 57.7038 35.5351 57.8741 35.5704 58.0379C35.6071 58.1912 35.6159 58.3414 35.5968 58.4882C35.5221 58.714 35.3176 58.9781 34.9836 59.2805C34.6619 59.5737 34.2586 59.7989 33.7735 59.956C33.5182 60.0012 33.246 60.0019 32.9571 59.958C32.6681 59.9141 32.4369 59.8182 32.2635 59.6705C32.0622 59.5621 31.9206 59.5617 31.8386 59.6695C31.758 59.7667 31.6623 60.022 31.5518 60.4354C31.4552 60.829 31.4504 61.1267 31.5374 61.3284C31.6259 61.5197 31.7629 61.6419 31.9487 61.6953C32.1665 61.763 32.3355 61.8144 32.4556 61.8494C32.5882 61.8754 32.7563 61.8468 32.9598 61.7637C33.1522 61.6793 33.2713 61.6345 33.3174 61.6291C33.3648 61.6133 33.401 61.5961 33.4261 61.5777C33.4637 61.5501 33.5452 61.4902 33.6705 61.3982C33.7583 61.3336 33.8265 61.2882 33.8753 61.2619C33.9254 61.225 33.9784 61.2099 34.0342 61.2163C34.09 61.2227 34.1369 61.2548 34.1747 61.3123C34.2139 61.3595 34.2544 61.3961 34.2964 61.4222C34.4081 61.4351 34.4222 61.5006 34.3388 61.6188C34.2666 61.7383 34.1295 61.877 33.9276 62.0349C33.727 62.1822 33.4943 62.3152 33.2295 62.4338ZM33.6476 59.0947C33.7773 59.0564 33.9153 58.9978 34.0615 58.9188C34.2092 58.8292 34.3352 58.7319 34.4397 58.6267C34.5566 58.5124 34.6205 58.4132 34.6314 58.3292C34.6506 58.1823 34.5937 58.0533 34.4608 57.9421C34.3293 57.8205 34.1136 57.7797 33.8138 57.8197C33.6868 57.8371 33.537 57.8998 33.3642 58.0077C33.1929 58.1052 33.025 58.219 32.8607 58.3491C32.7076 58.4807 32.5788 58.599 32.4744 58.7042C32.3812 58.8106 32.3444 58.8756 32.364 58.8992C32.3907 58.9554 32.4801 59.0083 32.6323 59.0578C32.7859 59.0968 32.9583 59.122 33.1496 59.1333C33.3519 59.146 33.518 59.1331 33.6476 59.0947ZM37.14 62.9797C37.0479 62.9904 36.9293 62.9874 36.7842 62.9707C36.6404 62.9435 36.514 62.913 36.4051 62.8792C36.3087 62.8361 36.2626 62.7988 36.2666 62.7673C36.2734 62.7149 36.249 62.6854 36.1931 62.679C36.1931 62.679 36.1679 62.6548 36.1176 62.6064C36.0784 62.5592 36.0113 62.5089 35.9163 62.4554C35.8349 62.2969 35.8051 62.1337 35.827 61.9658C35.8503 61.7874 35.9367 61.5151 36.0865 61.1489C36.1542 60.8904 36.2999 60.5982 36.5237 60.2725C36.76 59.9376 37.0361 59.6018 37.352 59.2654C37.6678 58.929 37.9901 58.6306 38.3187 58.3701C38.6585 58.111 38.9601 57.9273 39.2236 57.8192C39.3991 57.6903 39.5991 57.6334 39.8238 57.6486C40.0485 57.6638 40.2546 57.7355 40.4419 57.8635C40.5467 57.9288 40.6475 58.0256 40.7441 58.1539C40.8407 58.2822 40.9304 58.4204 41.0131 58.5683C41.0958 58.7163 41.1618 58.8624 41.2111 59.0065C41.2295 59.1258 41.2325 59.2327 41.2202 59.3271C41.2205 59.4124 41.2068 59.5173 41.1792 59.6419C41.1628 59.7679 41.1215 59.9548 41.0551 60.2028C40.9747 60.3853 40.8944 60.6104 40.8141 60.8781C40.7451 61.1471 40.6976 61.3813 40.6716 61.5807C40.6232 61.7775 40.6271 61.9217 40.6832 62.0134C40.7505 62.1063 40.8614 62.1244 41.0161 62.0677C41.1584 62.0201 41.2902 62.0086 41.4116 62.0333C41.5345 62.0474 41.6253 62.0898 41.6841 62.1605C41.7541 62.2325 41.7809 62.3314 41.7645 62.4573C41.7481 62.5833 41.664 62.7068 41.5122 62.8278C41.3729 62.9396 41.2023 63.0318 41.0001 63.1043C40.8105 63.1678 40.6319 63.1898 40.4644 63.1705C40.3416 63.1564 40.2332 63.0747 40.1393 62.9254C40.0468 62.7657 39.9689 62.5809 39.9056 62.3713C39.8547 62.1524 39.8081 61.9446 39.7657 61.7481L39.7124 61.3745L38.908 61.9369C38.7437 62.0671 38.5808 62.1869 38.4192 62.2961C38.2701 62.3961 38.1755 62.4704 38.1351 62.519C38.067 62.607 37.9486 62.6893 37.78 62.7657C37.6225 62.8435 37.4092 62.9148 37.14 62.9797ZM37.3113 62.0567C37.5149 61.9736 37.7524 61.8465 38.0241 61.6754C38.2971 61.4938 38.5665 61.2959 38.8325 61.0814C39.0998 60.8566 39.3253 60.6482 39.509 60.4563C39.7303 60.2368 39.9049 60.0279 40.0327 59.8296C40.1605 59.6313 40.2591 59.4402 40.3284 59.2564C40.2988 59.1359 40.2419 59.0068 40.1578 58.8694C40.0751 58.7214 39.9954 58.6376 39.9185 58.6181C39.6728 58.5898 39.3913 58.7066 39.0739 58.9682C38.769 59.2208 38.4662 59.5001 38.1656 59.8064C38.114 59.8537 38.0417 59.9307 37.9485 60.0371C37.8553 60.1435 37.7628 60.2447 37.6709 60.3406C37.5916 60.4273 37.5387 60.4852 37.5123 60.5141C37.4734 60.5523 37.3906 60.6652 37.2642 60.853C37.1501 61.0317 37.0355 61.2155 36.9202 61.4046C36.8063 61.5832 36.7452 61.7041 36.737 61.767C36.7288 61.83 36.7255 61.8988 36.7271 61.9735C36.7398 62.0495 36.7895 62.1032 36.8762 62.1345C36.9627 62.1658 37.1078 62.1398 37.3113 62.0567ZM46.7293 64.8501C46.5801 64.8649 46.4599 64.8298 46.3691 64.7447C46.2879 64.6714 46.2332 64.5693 46.205 64.4382C46.1471 64.1866 46.1143 63.9166 46.1065 63.6281C46.1113 63.3304 46.1392 63.0726 46.1903 62.8548L46.2668 62.5281L45.55 62.9409C45.1293 63.212 44.7314 63.3953 44.3563 63.4906C43.9924 63.5872 43.6764 63.62 43.4083 63.5891C43.2882 63.5541 43.1708 63.498 43.0563 63.4209C42.9416 63.3438 42.8402 63.2522 42.752 63.1462C42.675 63.0415 42.6154 62.9334 42.5732 62.822C42.5254 62.6674 42.529 62.4655 42.5842 62.2162C42.6505 61.9682 42.753 61.703 42.8919 61.4208C43.0432 61.1293 43.2155 60.8509 43.4087 60.5855C43.6145 60.3109 43.8378 60.0757 44.0787 59.8798C44.5156 59.3975 44.9537 59.123 45.3931 59.0564C45.8325 58.9898 46.2437 59.0957 46.6268 59.3741C46.9021 59.523 47.074 59.596 47.1423 59.5932C47.2218 59.5917 47.3046 59.4787 47.3905 59.2543C47.457 59.0915 47.5236 58.9288 47.5901 58.766C47.658 58.5927 47.7614 58.365 47.9002 58.0827C48.2833 57.3173 48.6047 56.7205 48.8645 56.2924C49.1355 55.8655 49.3766 55.4939 49.5878 55.1773C49.7421 54.9501 49.8618 54.8148 49.9467 54.7713C50.0443 54.7186 50.137 54.7026 50.225 54.7234C50.3478 54.7375 50.454 54.7923 50.5436 54.8879C50.6332 54.9834 50.6963 55.1078 50.733 55.2612C50.7654 55.3608 50.7712 55.4467 50.7504 55.5189C50.7422 55.5818 50.6971 55.6671 50.6151 55.7749C50.4371 56.01 50.2202 56.3259 49.9646 56.7225C49.7213 57.11 49.4672 57.5387 49.2019 58.0088C48.9478 58.4802 48.7056 58.9476 48.4751 59.411C48.2447 59.8745 48.0498 60.2834 47.8902 60.6379C47.7931 60.8611 47.6935 61.1479 47.5911 61.4982C47.5 61.8499 47.413 62.2127 47.3303 62.5866C47.249 62.95 47.1835 63.278 47.134 63.5706C47.0972 63.8539 47.0844 64.0389 47.0958 64.1253C47.1354 64.343 47.1428 64.5035 47.118 64.6073C47.1043 64.7122 47.0675 64.7772 47.0076 64.8022C46.9463 64.8378 46.8535 64.8537 46.7293 64.8501ZM44.1262 62.777C44.2866 62.7636 44.445 62.7232 44.601 62.6559C44.7683 62.59 44.9432 62.509 45.1257 62.4128C45.4922 62.21 45.8113 62.023 46.0829 61.8519C46.3546 61.6808 46.5562 61.3951 46.6877 60.9948C46.736 60.798 46.7341 60.638 46.6821 60.5149C46.6427 60.3825 46.5629 60.2561 46.4425 60.1358C46.3195 60.0364 46.1394 59.9838 45.9021 59.9777C45.6774 59.9625 45.4286 60.0457 45.1556 60.2273C44.8574 60.4274 44.5547 60.7067 44.2473 61.0655C43.951 61.4255 43.7045 61.8818 43.5078 62.4343C43.4718 62.5366 43.4944 62.6245 43.5755 62.6977C43.6567 62.7709 43.8402 62.7974 44.1262 62.777ZM50.1772 64.5598C49.7636 64.3418 49.509 64.0782 49.4132 63.7689C49.33 63.4505 49.3686 62.9809 49.5288 62.3603C49.5935 62.0375 49.6327 61.8237 49.6464 61.7187C49.66 61.6138 49.6123 61.5018 49.5031 61.3827C49.4751 61.3368 49.4212 61.2721 49.3414 61.1883C49.2728 61.1059 49.2475 61.0391 49.2656 60.9878C49.264 60.9131 49.2798 60.8351 49.3131 60.7537C49.3477 60.6618 49.3874 60.6185 49.432 60.6236C49.4767 60.6287 49.5227 60.6234 49.5702 60.6076C49.6287 60.5929 49.6789 60.5988 49.7209 60.6249C49.7656 60.63 49.8151 60.641 49.8696 60.658C49.924 60.6749 49.9486 60.7044 49.9431 60.7463C49.9782 60.8249 50.0494 60.8437 50.1567 60.8029C50.2654 60.7515 50.3893 60.6273 50.5283 60.4302C50.6619 60.2751 50.8289 60.124 51.0295 59.9766C51.2412 59.8306 51.4453 59.6996 51.6417 59.5837C51.8507 59.4586 52.0207 59.3717 52.1517 59.3229C52.2103 59.3083 52.2974 59.2917 52.4132 59.2731C52.529 59.2544 52.6497 59.2417 52.7752 59.2349C52.912 59.2293 53.0243 59.2369 53.1123 59.2576C53.312 59.2913 53.4726 59.363 53.5943 59.4729C53.7271 59.584 53.8468 59.7096 53.9533 59.8497C54.0861 59.9609 54.159 60.0971 54.172 60.2583C54.1962 60.4209 54.1855 60.5901 54.1399 60.7659C54.0942 60.9417 54.0228 61.0986 53.9255 61.2365C53.8784 61.3376 53.767 61.4527 53.5915 61.5815C53.416 61.7105 53.219 61.8316 53.0002 61.9449C52.7814 62.0582 52.5842 62.1367 52.4085 62.1804C52.2591 62.1952 52.0659 62.1995 51.8287 62.1935C51.6026 62.1888 51.389 62.1749 51.188 62.1518C50.9996 62.1195 50.8739 62.0837 50.811 62.0445C50.7383 61.9935 50.6693 62.0442 50.6042 62.1964C50.539 62.3487 50.4761 62.5704 50.4155 62.8617C50.3631 63.09 50.3412 63.2579 50.3499 63.3654C50.3585 63.4729 50.3713 63.5489 50.3882 63.5935C50.4568 63.676 50.5506 63.7827 50.6695 63.9135C50.801 64.0351 51 64.074 51.2664 64.0301C51.4854 64.0021 51.7097 63.8894 51.9395 63.6921C52.1803 63.4962 52.399 63.3403 52.5954 63.2244C52.6497 63.1561 52.7277 63.1224 52.8296 63.1235C52.944 63.1154 53.0606 63.1341 53.1793 63.1798C53.2925 63.2673 53.3312 63.3623 53.2951 63.4647C53.2717 63.5579 53.1968 63.6984 53.0703 63.8862C53.0271 63.9558 52.9367 64.0412 52.7988 64.1425C52.6735 64.2346 52.5307 64.33 52.3705 64.4287C52.2228 64.5183 52.089 64.5881 51.9691 64.6382C51.6123 64.7676 51.288 64.8208 50.9963 64.7979C50.7059 64.7645 50.433 64.6852 50.1772 64.5598ZM51.5818 61.4781C51.8344 61.4539 52.0346 61.4396 52.1825 61.4354C52.3304 61.4311 52.4775 61.3894 52.6238 61.3105C52.7715 61.2209 52.9643 61.046 53.2022 60.7858C53.2619 60.6755 53.2881 60.5614 53.2808 60.4434C53.2847 60.3267 53.267 60.2448 53.2278 60.1976C53.141 60.0811 53.0223 60.0355 52.8716 60.0608C52.7335 60.0768 52.5976 60.1197 52.4639 60.1896C52.3815 60.2121 52.2541 60.2773 52.0813 60.3852C51.9211 60.4839 51.7581 60.6037 51.5925 60.7444C51.4282 60.8746 51.2932 60.9975 51.1874 61.1132C51.0816 61.2288 51.0497 61.2997 51.0916 61.3259C51.0638 61.3652 51.1218 61.3985 51.2657 61.4258C51.4207 61.4543 51.526 61.4717 51.5818 61.4781ZM55.4879 65.0591C55.4531 65.0658 55.3979 65.0541 55.3225 65.0241C55.247 64.9941 55.1723 64.9589 55.0982 64.9184C55.0241 64.878 54.9773 64.8459 54.9577 64.8224C54.9185 64.7752 54.8821 64.7072 54.8483 64.6181C54.8257 64.5302 54.8415 64.4096 54.8955 64.256C54.9509 64.0919 55.0906 63.8896 55.3146 63.6492C55.3841 63.5507 55.4716 63.401 55.5772 63.2001C55.6826 62.9992 55.7895 62.7878 55.8977 62.5659C56.0186 62.3348 56.1248 62.1287 56.2164 61.9475C56.3191 61.7676 56.3921 61.6428 56.4352 61.5733C56.4808 61.3975 56.486 61.2703 56.4509 61.1916C56.4283 61.1038 56.3396 61.0456 56.1846 61.0172C56.0729 61.0044 55.985 60.9836 55.9207 60.9549C55.8676 60.9275 55.8534 60.8193 55.878 60.6304C55.9195 60.4861 55.9715 60.3909 56.0342 60.3448C56.1094 60.2895 56.2076 60.2316 56.3288 60.171C56.4474 60.1314 56.5638 60.1075 56.6782 60.0994C56.8038 60.0925 56.9217 60.1008 57.032 60.1241C57.1423 60.1474 57.2269 60.1945 57.2856 60.2651C57.3584 60.3161 57.3963 60.4164 57.3995 60.5659C57.4041 60.7049 57.3967 60.8478 57.3776 60.9947C57.3697 61.1429 57.3664 61.2544 57.368 61.3291C57.4906 61.2581 57.6565 61.1599 57.8654 61.0349C58.087 60.9006 58.2791 60.7736 58.4421 60.6539C58.6358 60.559 58.863 60.468 59.1237 60.3808C59.3858 60.2831 59.5727 60.2408 59.6844 60.2536C59.8072 60.2677 59.9259 60.3134 60.0406 60.3905C60.1566 60.4571 60.2314 60.5349 60.2652 60.624C60.3536 60.8152 60.3833 60.9784 60.3544 61.1136C60.3366 61.25 60.2567 61.3846 60.1147 61.5174C59.9853 61.6409 59.8334 61.7194 59.659 61.7526C59.4959 61.787 59.3919 61.8017 59.3473 61.7965C59.2803 61.7889 59.2027 61.732 59.1145 61.626C59.0263 61.5199 58.9807 61.4348 58.9778 61.3706C58.9818 61.3391 58.9052 61.3622 58.7478 61.44C58.6028 61.5085 58.4377 61.6013 58.2524 61.7185C58.0685 61.8252 57.9138 61.9245 57.7885 62.0166C57.5699 62.2152 57.33 62.4911 57.0686 62.8444C56.8072 63.1978 56.4964 63.6254 56.1364 64.1272C55.9682 64.3741 55.8439 64.5888 55.7634 64.7713C55.6844 64.9433 55.5925 65.0392 55.4879 65.0591Z" fill="#F67ACB"/>
<path d="M76.6656 70.2396C78.9037 70.244 81.0513 70.2565 83.1974 70.2614C83.6253 70.2641 83.9273 70.2657 84.4652 70.1883C84.8653 70.1346 85.7113 70.0041 85.5618 69.6245C85.4025 69.3231 85.2471 69.128 84.5043 69.0572C82.5849 68.8831 80.6498 68.9718 78.7295 69.0503C77.0338 69.1207 75.7417 69.1981 74.2446 69.3413C73.5454 69.4082 73.3304 69.7665 73.5241 70.3297C73.6981 70.8351 73.8669 71.3568 74.142 71.8218C75.1238 73.5036 76.1498 75.1548 77.1625 76.8237C77.2869 77.0317 77.3701 77.2009 77.5571 77.4287C77.7865 77.7027 77.9366 77.914 78.2679 77.7651C78.5845 77.6264 78.4816 77.1853 78.3815 76.973C77.588 75.1824 75.8836 71.514 75.8416 71.2995C77.0249 71.7381 78.1304 72.1212 79.2135 72.5618C86.74 75.6628 93.9553 79.2304 100.137 84.3301C105.031 88.3666 109.311 92.8683 112.822 97.9769C113.032 98.2774 113.271 98.5647 113.509 98.8375C113.825 99.2113 114.062 99.3539 114.287 99.2159C114.67 98.905 114.527 98.6008 114.436 98.3489C114.262 97.8434 113.968 97.3662 113.685 96.9026C109.826 90.7375 104.61 85.6548 98.6351 81.1851C92.5031 76.5972 85.4892 73.4613 78.153 70.8629C77.7602 70.7394 76.8213 70.3506 76.6656 70.2396Z" fill="#F67ACB"/>
<g clip-path="url(#clip2_69_1418)">
<mask id="path-17-inside-2_69_1418" fill="white">
<path d="M208 33.5385C208 15.0157 223.016 0 241.538 0H488.885C507.407 0 522.423 15.0157 522.423 33.5385V511.462C522.423 529.984 507.407 545 488.885 545H241.538C223.016 545 208 529.984 208 511.462V33.5385Z"/>
</mask>
<path d="M208 33.5385C208 15.0157 223.016 0 241.538 0H488.885C507.407 0 522.423 15.0157 522.423 33.5385V511.462C522.423 529.984 507.407 545 488.885 545H241.538C223.016 545 208 529.984 208 511.462V33.5385Z" fill="url(#paint1_linear_69_1418)"/>
<rect width="314.423" height="73.7846" transform="translate(208)" fill="url(#paint2_linear_69_1418)"/>
<rect width="314.423" height="218.838" transform="translate(208 423.423)" fill="url(#paint3_linear_69_1418)"/>
<g clip-path="url(#clip3_69_1418)">
</g>
<rect x="228.542" y="430.55" width="273.338" height="204.585" rx="9.64231" stroke="white" stroke-width="0.838462"/>
<circle cx="258.307" cy="103.969" r="29.8999" stroke="#343434" stroke-width="0.569521"/>
<g clip-path="url(#clip4_69_1418)">
<path d="M260.939 96.6762L256.395 102.789L259.848 107.423L257.91 108.901L252.43 101.58L245.145 111.341H271.877L260.939 96.6762Z" fill="#F67ACB"/>
</g>
<circle cx="329.577" cy="103.969" r="29.8999" stroke="#343434" stroke-width="0.569521"/>
<g clip-path="url(#clip5_69_1418)">
<path d="M332.209 96.6761L327.664 102.789L331.117 107.423L329.179 108.901L323.699 101.579L316.415 111.341H343.147L332.209 96.6761Z" fill="#F67ACB"/>
</g>
<circle cx="400.846" cy="103.969" r="29.8999" stroke="#343434" stroke-width="0.569521"/>
<g clip-path="url(#clip6_69_1418)">
<path d="M403.478 96.6761L398.933 102.789L402.386 107.423L400.448 108.901L394.968 101.579L387.684 111.341H414.416L403.478 96.6761Z" fill="#F67ACB"/>
</g>
<rect width="314.423" height="218.838" transform="translate(208 147.569)" fill="url(#paint4_linear_69_1418)"/>
<g clip-path="url(#clip7_69_1418)">
<rect x="228.123" y="315.262" width="274.177" height="0.838462" rx="0.419231" fill="black"/>
<g clip-path="url(#clip8_69_1418)">
<path d="M256.1 332.737C255.743 332.38 255.319 332.096 254.853 331.903C254.386 331.71 253.887 331.61 253.382 331.61C252.877 331.61 252.377 331.71 251.911 331.903C251.444 332.096 251.021 332.38 250.664 332.737L249.923 333.477L249.182 332.737C248.462 332.016 247.484 331.611 246.464 331.611C245.445 331.611 244.467 332.016 243.746 332.737C243.026 333.457 242.621 334.435 242.621 335.455C242.621 336.474 243.026 337.452 243.746 338.173L244.487 338.913L249.923 344.349L255.359 338.913L256.1 338.173C256.457 337.816 256.74 337.392 256.933 336.926C257.127 336.459 257.226 335.959 257.226 335.455C257.226 334.95 257.127 334.45 256.933 333.984C256.74 333.517 256.457 333.093 256.1 332.737V332.737Z" stroke="white" stroke-width="1.25769" stroke-linecap="round" stroke-linejoin="round"/>
</g>
<path d="M286.396 339.996C286.396 340.367 286.249 340.722 285.987 340.984C285.725 341.246 285.369 341.394 284.999 341.394H276.614L273.819 344.188V333.009C273.819 332.638 273.967 332.283 274.229 332.021C274.491 331.759 274.846 331.612 275.217 331.612H284.999C285.369 331.612 285.725 331.759 285.987 332.021C286.249 332.283 286.396 332.638 286.396 333.009V339.996Z" stroke="white" stroke-width="1.25769" stroke-linecap="round" stroke-linejoin="round"/>
</g>
<rect x="228.542" y="154.696" width="273.338" height="204.585" rx="9.64231" stroke="white" stroke-width="0.838462"/>
<rect width="314.423" height="57.0154" transform="translate(208 366.408)" fill="url(#paint5_linear_69_1418)"/>
<rect x="228.123" y="386.531" width="174.4" height="1.67692" fill="white"/>
<rect x="228.123" y="401.623" width="102.292" height="1.67692" fill="white"/>
<path d="M259.085 44.6653C256.013 44.6653 253.944 42.7008 253.944 40.2556H256.472C256.493 41.3841 257.559 42.4082 259.147 42.4082C260.61 42.4082 261.551 41.5095 261.551 40.381C261.551 39.3778 260.694 38.7926 259.482 38.4582L257.685 37.9567C254.591 37.1625 254.048 35.3025 254.048 34.0485C254.048 31.4988 256.284 29.7642 258.938 29.7642C261.572 29.7642 263.641 31.3943 263.641 34.0903H261.112C261.112 32.8991 260.213 32.0422 258.876 32.0422C257.643 32.0422 256.619 32.8782 256.619 34.0067C256.619 34.4038 256.744 35.2398 258.395 35.6787L260.109 36.1802C262.366 36.8072 264.101 37.9776 264.101 40.2765C264.101 42.9098 261.906 44.6653 259.085 44.6653Z" fill="white"/>
<path d="M268.936 34.6546H271.005V36.5773H268.936V44.4145H266.511V36.5773H264.756V34.6546H266.511V31.0599H268.936V34.6546Z" fill="white"/>
<path d="M277.456 34.4038C278.042 34.4038 278.669 34.5292 279.045 34.7382L278.564 37.0371C278 36.7445 277.498 36.6818 277.143 36.6818C275.555 36.6818 274.677 38.2702 274.677 41.008V44.4145H272.232V34.6546H274.656V36.7445C275.178 35.1144 276.244 34.4038 277.456 34.4038Z" fill="white"/>
<path d="M286.847 39.8794V34.6546H289.271V44.4145H286.847V42.8889C286.345 44.1219 284.799 44.6653 283.817 44.6653C281.309 44.6653 279.908 42.9725 279.908 40.1302V34.6546H282.333V40.0257C282.333 41.5931 283.273 42.4082 284.36 42.4082C285.468 42.4082 286.847 41.7812 286.847 39.8794Z" fill="white"/>
<path d="M296.211 44.6653C293.39 44.6653 290.903 42.6172 290.903 39.5241C290.903 36.431 293.39 34.4038 296.211 34.4038C297.904 34.4038 299.284 35.1562 300.182 36.2847L298.469 37.6432C297.967 37.0371 297.131 36.6609 296.253 36.6609C294.56 36.6609 293.348 37.8731 293.348 39.5241C293.348 41.1542 294.56 42.4082 296.253 42.4082C297.131 42.4082 297.967 42.032 298.469 41.4259L300.182 42.7844C299.284 43.9129 297.904 44.6653 296.211 44.6653Z" fill="white"/>
<path d="M304.94 34.6546H307.009V36.5773H304.94V44.4145H302.516V36.5773H300.761V34.6546H302.516V31.0599H304.94V34.6546Z" fill="white"/>
<path d="M313.691 34.4038C316.429 34.4038 318.644 36.5564 318.644 39.5241C318.644 42.4918 316.429 44.6653 313.691 44.6653C312.061 44.6653 310.514 43.8293 309.804 42.4918V44.4145H308.466V29.3462H309.804V36.5564C310.535 35.2189 312.04 34.4038 313.691 34.4038ZM313.586 43.3905C315.656 43.3905 317.327 41.6767 317.327 39.5032C317.327 37.3506 315.656 35.6787 313.586 35.6787C311.643 35.6787 309.804 37.2043 309.804 39.5659C309.804 41.823 311.559 43.3905 313.586 43.3905Z" fill="white"/>
<path d="M325.128 44.6653C322.348 44.6653 320.028 42.6172 320.028 39.5241C320.028 36.431 322.348 34.4038 325.128 34.4038C327.907 34.4038 330.248 36.431 330.248 39.5241C330.248 42.6172 327.907 44.6653 325.128 44.6653ZM325.128 43.3905C327.176 43.3905 328.911 41.823 328.911 39.5241C328.911 37.2252 327.176 35.6787 325.128 35.6787C323.059 35.6787 321.366 37.2252 321.366 39.5241C321.366 41.823 323.059 43.3905 325.128 43.3905Z" fill="white"/>
<path d="M336.706 44.6653C333.926 44.6653 331.606 42.6172 331.606 39.5241C331.606 36.431 333.926 34.4038 336.706 34.4038C339.485 34.4038 341.826 36.431 341.826 39.5241C341.826 42.6172 339.485 44.6653 336.706 44.6653ZM336.706 43.3905C338.754 43.3905 340.488 41.823 340.488 39.5241C340.488 37.2252 338.754 35.6787 336.706 35.6787C334.637 35.6787 332.944 37.2252 332.944 39.5241C332.944 41.823 334.637 43.3905 336.706 43.3905Z" fill="white"/>
<path d="M346.611 44.6653C344.919 44.6653 343.226 43.6831 343.059 41.823H344.292C344.438 42.6381 345.19 43.4741 346.611 43.4741C348.012 43.4741 348.869 42.7426 348.869 41.7603C348.869 40.9662 348.325 40.4437 347.322 40.1929L345.922 39.8585C344.542 39.5241 343.435 38.8135 343.435 37.1834C343.435 35.5951 344.793 34.4038 346.653 34.4038C348.283 34.4038 349.788 35.3025 349.851 37.058H348.555C348.492 36.1802 347.636 35.5951 346.674 35.5951C345.546 35.5951 344.772 36.2847 344.772 37.2043C344.772 38.1239 345.567 38.5209 346.277 38.6881L347.719 39.0434C349.621 39.5032 350.206 40.6527 350.206 41.7812C350.206 43.5159 348.639 44.6653 346.611 44.6653Z" fill="white"/>
<path d="M354.171 34.6546H356.407V35.804H354.171V44.4145H352.854V35.804H351.078V34.6546H352.854V30.9972H354.171V34.6546Z" fill="white"/>
<path d="M245.078 30.3679H236.116C235.75 30.3679 235.672 30.3943 235.463 30.605L228.358 37.2428C228.149 37.4535 228.123 37.5326 228.123 37.9014V41.8001C228.123 44.0123 229.22 45.1187 231.414 45.1187H240.376C240.741 45.1187 240.819 45.0923 241.028 44.8816L248.134 38.2438C248.343 38.0331 248.369 37.954 248.369 37.5852V33.6871C248.369 31.4743 247.272 30.3679 245.078 30.3679Z" fill="#F67ACB"/>
<g clip-path="url(#clip9_69_1418)">
<path d="M371.522 225.021L360.267 240.159L368.819 251.638L364.019 255.297L350.447 237.165L332.406 261.342H398.611L371.522 225.021Z" fill="#F67ACB"/>
</g>
</g>
<path d="M207.162 33.5385C207.162 14.5526 222.553 -0.838462 241.538 -0.838462H488.885C507.87 -0.838462 523.262 14.5526 523.262 33.5385H521.585C521.585 15.4787 506.944 0.838462 488.885 0.838462H241.538C223.479 0.838462 208.838 15.4787 208.838 33.5385H207.162ZM522.423 545H208H522.423ZM241.538 545C222.553 545 207.162 529.609 207.162 510.623V33.5385C207.162 14.5526 222.553 -0.838462 241.538 -0.838462V0.838462C223.479 0.838462 208.838 15.4787 208.838 33.5385V511.462C208.838 529.984 223.479 545 241.538 545ZM488.885 -0.838462C507.87 -0.838462 523.262 14.5526 523.262 33.5385V510.623C523.262 529.609 507.87 545 488.885 545C506.944 545 521.585 529.984 521.585 511.462V33.5385C521.585 15.4787 506.944 0.838462 488.885 0.838462V-0.838462Z" fill="white" mask="url(#path-17-inside-2_69_1418)"/>
</g>
<defs>
<linearGradient id="paint0_linear_69_1418" x1="-101.625" y1="-85.2069" x2="1179.16" y2="-122.238" gradientUnits="userSpaceOnUse">
<stop stop-color="#000205"/>
<stop offset="1" stop-color="#000205"/>
</linearGradient>
<linearGradient id="paint1_linear_69_1418" x1="167.169" y1="-191.032" x2="574.06" y2="-194.281" gradientUnits="userSpaceOnUse">
<stop stop-color="#000205"/>
<stop offset="1" stop-color="#000205"/>
</linearGradient>
<linearGradient id="paint2_linear_69_1418" x1="-40.8313" y1="-25.8628" x2="364.676" y2="-49.7809" gradientUnits="userSpaceOnUse">
<stop stop-color="#050003"/>
<stop offset="1" stop-color="#060004"/>
</linearGradient>
<linearGradient id="paint3_linear_69_1418" x1="-40.8313" y1="-76.7066" x2="365.925" y2="-84.7958" gradientUnits="userSpaceOnUse">
<stop stop-color="#000205"/>
<stop offset="1" stop-color="#000205"/>
</linearGradient>
<linearGradient id="paint4_linear_69_1418" x1="-40.8313" y1="-76.7066" x2="365.925" y2="-84.7958" gradientUnits="userSpaceOnUse">
<stop stop-color="#000205"/>
<stop offset="1" stop-color="#000205"/>
</linearGradient>
<linearGradient id="paint5_linear_69_1418" x1="-40.8313" y1="-19.9849" x2="363.729" y2="-50.8656" gradientUnits="userSpaceOnUse">
<stop stop-color="#000205"/>
<stop offset="1" stop-color="#000205"/>
</linearGradient>
<clipPath id="clip0_69_1418">
<rect width="415" height="460" fill="white"/>
</clipPath>
<clipPath id="clip1_69_1418">
<path d="M27 108.947C27 93.5124 39.5125 81 54.9473 81H989.535C1004.97 81 1017.48 93.5125 1017.48 108.947V555.176H27V108.947Z" fill="white"/>
</clipPath>
<clipPath id="clip2_69_1418">
<path d="M208 33.5385C208 15.0157 223.016 0 241.538 0H488.885C507.407 0 522.423 15.0157 522.423 33.5385V511.462C522.423 529.984 507.407 545 488.885 545H241.538C223.016 545 208 529.984 208 511.462V33.5385Z" fill="white"/>
</clipPath>
<clipPath id="clip3_69_1418">
<rect x="228.123" y="430.131" width="274.177" height="205.423" rx="10.0615" fill="white"/>
</clipPath>
<clipPath id="clip4_69_1418">
<rect width="26.8308" height="14.6653" fill="white" transform="translate(245.145 96.6762)"/>
</clipPath>
<clipPath id="clip5_69_1418">
<rect width="26.8308" height="14.6653" fill="white" transform="translate(316.415 96.6761)"/>
</clipPath>
<clipPath id="clip6_69_1418">
<rect width="26.8308" height="14.6653" fill="white" transform="translate(387.684 96.6761)"/>
</clipPath>
<clipPath id="clip7_69_1418">
<rect x="228.123" y="154.277" width="274.177" height="205.423" rx="10.0615" fill="white"/>
</clipPath>
<clipPath id="clip8_69_1418">
<rect width="16.7692" height="16.7692" fill="white" transform="translate(241.539 329.515)"/>
</clipPath>
<clipPath id="clip9_69_1418">
<rect width="66.45" height="36.3205" fill="white" transform="translate(332.406 225.021)"/>
</clipPath>
</defs>
</svg>
